<mxfile host="65bd71144e">
    <diagram id="IB11BeZiLxqqekNDG_Ik" name="第 1 页">
        <mxGraphModel dx="816" dy="432" grid="0" gridSize="10" guides="1" tooltips="1" connect="1" arrows="1" fold="1" page="1" pageScale="1" pageWidth="827" pageHeight="1169" math="0" shadow="0">
            <root>
                <mxCell id="0"/>
                <mxCell id="1" parent="0"/>
                <mxCell id="2" value="" style="rounded=0;whiteSpace=wrap;html=1;" vertex="1" parent="1">
                    <mxGeometry x="60" y="60" width="560" height="350" as="geometry"/>
                </mxCell>
                <mxCell id="3" value="" style="rounded=0;whiteSpace=wrap;html=1;" vertex="1" parent="1">
                    <mxGeometry x="100" y="100" width="160" height="200" as="geometry"/>
                </mxCell>
                <mxCell id="4" value="" style="rounded=0;whiteSpace=wrap;html=1;" vertex="1" parent="1">
                    <mxGeometry x="290" y="100" width="280" height="200" as="geometry"/>
                </mxCell>
                <mxCell id="5" value="待执行的javascript代码" style="rounded=1;whiteSpace=wrap;html=1;fontSize=16;" vertex="1" parent="1">
                    <mxGeometry x="100" y="353" width="470" height="50" as="geometry"/>
                </mxCell>
                <mxCell id="6" value="V8引擎" style="text;html=1;strokeColor=none;fillColor=none;align=center;verticalAlign=middle;whiteSpace=wrap;rounded=0;fontSize=14;" vertex="1" parent="1">
                    <mxGeometry x="150" y="170" width="60" height="30" as="geometry"/>
                </mxCell>
                <mxCell id="7" value="内置API" style="text;html=1;strokeColor=none;fillColor=none;align=center;verticalAlign=middle;whiteSpace=wrap;rounded=0;fontSize=14;" vertex="1" parent="1">
                    <mxGeometry x="300" y="110" width="60" height="30" as="geometry"/>
                </mxCell>
                <mxCell id="8" value="" style="rounded=1;whiteSpace=wrap;html=1;" vertex="1" parent="1">
                    <mxGeometry x="300" y="155" width="70" height="35" as="geometry"/>
                </mxCell>
                <mxCell id="9" value="" style="rounded=1;whiteSpace=wrap;html=1;" vertex="1" parent="1">
                    <mxGeometry x="390" y="155" width="70" height="35" as="geometry"/>
                </mxCell>
                <mxCell id="10" value="" style="rounded=1;whiteSpace=wrap;html=1;" vertex="1" parent="1">
                    <mxGeometry x="480" y="155" width="70" height="35" as="geometry"/>
                </mxCell>
                <mxCell id="11" value="etc......" style="rounded=1;whiteSpace=wrap;html=1;" vertex="1" parent="1">
                    <mxGeometry x="480" y="210" width="70" height="35" as="geometry"/>
                </mxCell>
                <mxCell id="12" value="" style="rounded=1;whiteSpace=wrap;html=1;" vertex="1" parent="1">
                    <mxGeometry x="390" y="210" width="70" height="35" as="geometry"/>
                </mxCell>
                <mxCell id="13" value="" style="rounded=1;whiteSpace=wrap;html=1;" vertex="1" parent="1">
                    <mxGeometry x="300" y="210" width="70" height="35" as="geometry"/>
                </mxCell>
                <mxCell id="14" value="Node.js运行环境" style="text;html=1;strokeColor=none;fillColor=none;align=center;verticalAlign=middle;whiteSpace=wrap;rounded=0;fontSize=16;" vertex="1" parent="1">
                    <mxGeometry x="60" y="60" width="140" height="30" as="geometry"/>
                </mxCell>
                <mxCell id="15" value="fs" style="text;html=1;strokeColor=none;fillColor=none;align=center;verticalAlign=middle;whiteSpace=wrap;rounded=0;fontSize=14;" vertex="1" parent="1">
                    <mxGeometry x="305" y="157.5" width="60" height="30" as="geometry"/>
                </mxCell>
                <mxCell id="16" value="path" style="text;html=1;strokeColor=none;fillColor=none;align=center;verticalAlign=middle;whiteSpace=wrap;rounded=0;fontSize=14;" vertex="1" parent="1">
                    <mxGeometry x="395" y="157.5" width="60" height="30" as="geometry"/>
                </mxCell>
                <mxCell id="17" value="http" style="text;html=1;strokeColor=none;fillColor=none;align=center;verticalAlign=middle;whiteSpace=wrap;rounded=0;fontSize=14;" vertex="1" parent="1">
                    <mxGeometry x="485" y="157.5" width="60" height="30" as="geometry"/>
                </mxCell>
                <mxCell id="19" value="querystring" style="text;html=1;strokeColor=none;fillColor=none;align=center;verticalAlign=middle;whiteSpace=wrap;rounded=0;fontSize=14;" vertex="1" parent="1">
                    <mxGeometry x="395" y="212.5" width="60" height="30" as="geometry"/>
                </mxCell>
                <mxCell id="20" value="js内置对象" style="text;html=1;strokeColor=none;fillColor=none;align=center;verticalAlign=middle;whiteSpace=wrap;rounded=0;fontSize=14;" vertex="1" parent="1">
                    <mxGeometry x="305" y="212.5" width="60" height="30" as="geometry"/>
                </mxCell>
                <mxCell id="24" value="" style="html=1;shadow=0;dashed=0;align=center;verticalAlign=middle;shape=mxgraph.arrows2.arrow;dy=0.59;dx=28.67;direction=south;notch=0;fontSize=16;" vertex="1" parent="1">
                    <mxGeometry x="401" y="300" width="25" height="52" as="geometry"/>
                </mxCell>
                <mxCell id="25" value="" style="html=1;shadow=0;dashed=0;align=center;verticalAlign=middle;shape=mxgraph.arrows2.arrow;dy=0.59;dx=28.67;direction=south;notch=0;fontSize=16;rotation=-180;" vertex="1" parent="1">
                    <mxGeometry x="161" y="301" width="25" height="52" as="geometry"/>
                </mxCell>
            </root>
        </mxGraphModel>
    </diagram>
</mxfile>